#!OML:ASF H:\Terrain\Patient Classification 1\Terrain2\Thursday\justin.ASF
:FULLY-SPECIFIED
:DEGREES
1077
root 18.3694 17.5162 -20.8064 182.582 47.9852 -179.229
lowerback 4.70838 0.637664 -1.99348
upperback 2.75329 0.879968 2.23862
thorax 0.128315 0.446239 3.3827
lowerneck -13.3653 -5.4302 -9.7038
upperneck 38.4906 -4.62756 5.49889
head 16.5194 -1.72113 3.60047
rclavicle 1.20265e-014 9.54166e-015
rhumerus -30.8036 -10.52 -77.8535
rradius 26.8705
rwrist -9.90392
rhand -18.282 13.3604
rfingers 7.12502
rthumb 7.99813 -16.4683
lclavicle 1.20265e-014 9.54166e-015
lhumerus -34.347 8.3781 80.3527
lradius 28.6429
lwrist 4.79609
lhand -15.4114 24.9736
lfingers 7.12502
lthumb 10.7679 54.6777
rfemur -16.573 -6.35076 17.7706
rtibia 41.4646
rfoot -22.5011 -10.0513
rtoes 3.22051
lfemur -8.01465 3.05784 -19.1003
ltibia 24.6165
lfoot -13.6627 -6.23538
ltoes 3.97017
1078
root 18.3606 17.5144 -20.83 182.226 48.9029 -179.569
lowerback 4.69238 0.610299 -2.20104
upperback 2.83995 0.834718 2.14614
thorax 0.228697 0.419195 3.40732
lowerneck -13.2836 -5.42852 -9.40249
upperneck 38.507 -4.67289 5.30905
head 16.4912 -1.72841 3.45168
rclavicle 6.21202e-014 -1.74931e-014
rhumerus -30.7711 -11.0148 -77.6588
rradius 26.7505
rwrist -9.46248
rhand -18.2771 14.0662
rfingers 7.12502
rthumb 8.00292 -15.7623
lclavicle 6.21202e-014 -1.74931e-014
lhumerus -34.2919 8.18585 80.3129
lradius 28.7257
lwrist 4.93538
lhand -15.8079 25.2947
lfingers 7.12502
lthumb 10.3855 55.0182
rfemur -16.5907 -7.38424 17.7246
rtibia 42.2398
rfoot -22.762 -9.47314
rtoes 5.2143
lfemur -7.80451 2.78526 -19.4939
ltibia 24.737
lfoot -13.8984 -5.26763
ltoes 3.7501
1079
root 18.3522 17.5275 -20.8435 182.3 49.6907 -179.532
lowerback 4.68202 0.563995 -2.16665
upperback 2.84585 0.773296 2.11912
thorax 0.245822 0.388234 3.36291
lowerneck -13.2128 -5.47206 -9.5329
upperneck 38.5367 -4.79751 5.5037
head 16.5158 -1.77979 3.54068
rclavicle 1.20861e-013 5.56597e-015
rhumerus -30.7693 -11.4828 -77.4817
rradius 26.6509
rwrist -8.93187
rhand -18.1805 14.8782
rfingers 7.12502
rthumb 8.09608 -14.9467
lclavicle 1.20861e-013 5.56597e-015
lhumerus -34.0906 8.05994 80.2357
lradius 28.606
lwrist 5.43146
lhand -16.8536 26.088
lfingers 7.12502
lthumb 9.37662 55.8595
rfemur -16.7834 -8.4286 17.9626
rtibia 42.9725
rfoot -23.0131 -8.47526
rtoes 7.57341
lfemur -7.70484 2.7469 -19.563
ltibia 24.7041
lfoot -13.9743 -4.55335
ltoes 1.74676
1080
root 18.3477 17.5079 -20.8504 182.733 50.5506 -179.096
lowerback 4.67068 0.464673 -2.12191
upperback 2.73708 0.6428 2.32609
thorax 0.148314 0.324313 3.55724
lowerneck -13.0002 -5.42053 -9.80275
upperneck 38.6478 -4.65234 5.51339
head 16.52 -1.76088 3.62553
rclavicle -5.42682e-014 -4.37326e-015
rhumerus -31.0148 -11.3299 -77.2691
rradius 26.8823
rwrist -8.69113
rhand -17.8077 14.8388
rfingers 7.12502
rthumb 8.45595 -14.9719
lclavicle -5.42682e-014 -4.37326e-015
lhumerus -34.1704 8.58895 80.0591
lradius 28.1823
lwrist 5.4414
lhand -17.6323 25.685
lfingers 7.12502
lthumb 8.62523 55.4888
rfemur -17.0423 -9.52082 18.6333
rtibia 43.5506
rfoot -22.7689 -8.53437
rtoes 4.85872
lfemur -7.66816 2.9479 -19.3219
ltibia 24.6483
lfoot -13.996 -4.09906
ltoes 0.66485
1081
root 18.3452 17.5127 -20.8634 182.789 51.4483 -179.195
lowerback 4.57331 -0.000711505 -2.85945
upperback 2.53215 -0.00308378 2.82883
thorax 0.0459517 -0.00608869 4.52727
lowerneck -12.6466 -5.0449 -10.5002
upperneck 38.8191 -3.76699 5.20758
head 16.4472 -1.54317 3.77714
rclavicle -7.28546e-014 -1.43125e-014
rhumerus -31.0576 -9.03178 -77.3059
rradius 27.2387
rwrist -9.10013
rhand -18.202 13.5194
rfingers 7.12502
rthumb 8.07534 -16.3063
lclavicle -7.28546e-014 -1.43125e-014
lhumerus -35.1311 10.6847 79.714
lradius 28.3055
lwrist 5.06634
lhand -17.2944 24.8905
lfingers 7.12502
lthumb 8.95126 54.6806
rfemur -17.3073 -9.54802 18.9231
rtibia 44.1357
rfoot -22.8 -8.78553
rtoes 5.93387
lfemur -7.64471 3.07752 -19.4871
ltibia 24.5919
lfoot -14.0622 -3.49559
ltoes 0.153282
1082
root 18.3425 17.5174 -20.8804 182.749 52.3892 -179.216
lowerback 4.50996 0.390623 -2.39828
upperback 2.74267 0.531433 2.32349
thorax 0.250738 0.26185 3.71709
lowerneck -12.9512 -5.48535 -9.82327
upperneck 38.8309 -4.77969 5.51866
head 16.622 -1.82867 3.6149
rclavicle 1.11419e-013 -3.97569e-014
rhumerus -31.1517 -10.189 -77.6289
rradius 27.6352
rwrist -9.18039
rhand -19.0314 12.5613
rfingers 7.12502
rthumb 7.27486 -17.2937
lclavicle 1.11419e-013 -3.97569e-014
lhumerus -34.5073 8.92248 79.6827
lradius 28.4062
lwrist 4.85661
lhand -17.6614 24.3653
lfingers 7.12502
lthumb 8.59712 54.1703
rfemur -17.3605 -11.402 19.0344
rtibia 44.4953
rfoot -22.6587 -7.1716
rtoes 7.58453
lfemur -7.61031 3.23398 -19.6019
ltibia 24.9113
lfoot -14.3113 -2.742
ltoes -0.56145
1083
root 18.3468 17.526 -20.8934 182.967 53.4641 -178.872
lowerback 4.52324 0.563933 -2.20629
upperback 2.80727 0.77057 2.29401
thorax 0.292347 0.383259 3.56773
lowerneck -13.084 -5.62965 -9.70945
upperneck 38.9507 -5.05645 5.56658
head 16.7484 -1.9237 3.57051
rclavicle 2.98177e-014 3.18055e-015
rhumerus -31.2513 -10.8202 -77.437
rradius 27.6703
rwrist -9.00441
rhand -19.028 13.0135
rfingers 7.12502
rthumb 7.27811 -16.8413
lclavicle 2.98177e-014 3.18055e-015
lhumerus -34.3946 7.88383 80.1058
lradius 28.0314
lwrist 3.042
lhand -19.7596 23.9614
lfingers 7.12502
lthumb 6.57191 53.8394
rfemur -17.26 -12.0562 19.5163
rtibia 44.8819
rfoot -22.7793 -6.6969
rtoes 8.36531
lfemur -7.36796 3.38335 -19.4724
ltibia 24.9464
lfoot -14.4795 -1.76613
ltoes -1.55985
1084
root 18.3479 17.4917 -20.9018 183.083 54.4488 -178.66
lowerback 4.60835 0.662708 -2.21317
upperback 2.7914 0.901082 2.34279
thorax 0.217582 0.44962 3.61527
lowerneck -13.1359 -5.70895 -9.71876
upperneck 39.1397 -5.15877 5.5431
head 16.8772 -1.97112 3.55187
rclavicle 2.68359e-015 -2.66371e-014
rhumerus -31.438 -11.5457 -77.0769
rradius 27.6136
rwrist -8.62375
rhand -18.7847 13.818
rfingers 7.12502
rthumb 7.51292 -16.0286
lclavicle 2.68359e-015 -2.66371e-014
lhumerus -34.2341 8.2917 79.724
lradius 28.1433
lwrist 4.19622
lhand -17.8943 24.504
lfingers 7.12502
lthumb 8.37234 54.3181
rfemur -17.1787 -13.0228 20.1529
rtibia 45.0262
rfoot -22.0012 -8.30711
rtoes 0.27438
lfemur -7.28264 3.55928 -19.4319
ltibia 25.1672
lfoot -14.7204 -0.927486
ltoes -2.55602
1085
root 18.3507 17.5075 -20.914 183.09 55.1086 -178.56
lowerback 4.62897 0.551423 -2.17385
upperback 2.80159 0.755689 2.41588
thorax 0.227706 0.377089 3.67532
lowerneck -13.0721 -5.70234 -10.0838
upperneck 39.2398 -5.10018 5.68273
head 16.9347 -1.98784 3.6966
rclavicle 8.8658e-014 -2.3059e-014
rhumerus -31.5931 -11.5553 -76.8986
rradius 27.7361
rwrist -8.55341
rhand -18.7683 14.0932
rfingers 7.12502
rthumb 7.52883 -15.7528
lclavicle 8.8658e-014 -2.3059e-014
lhumerus -34.4226 7.44383 80.3004
lradius 27.9633
lwrist 3.19028
lhand -20.0106 24.2842
lfingers 7.12502
lthumb 6.32955 54.1696
rfemur -16.9544 -13.4751 20.2237
rtibia 45.0773
rfoot -22.3016 -6.49179
rtoes 8.36317
lfemur -7.17221 3.69865 -19.4252
ltibia 25.3514
lfoot -14.9232 -0.500698
ltoes -2.51821
1086
root 18.3507 17.4952 -20.925 183.279 55.6246 -178.383
lowerback 4.39738 0.125061 -2.25937
upperback 2.79139 0.190938 2.71584
thorax 0.3916 0.0897026 4.06071
lowerneck -12.9305 -5.43174 -10.6922
upperneck 39.244 -4.47493 5.53944
head 16.8522 -1.85309 3.85061
rclavicle 7.07673e-014 -2.70347e-014
rhumerus -31.4508 -10.5482 -76.8196
rradius 27.78
rwrist -8.81171
rhand -18.5376 14.1822
rfingers 7.12502
rthumb 7.75151 -15.6557
lclavicle 7.07673e-014 -2.70347e-014
lhumerus -34.7043 10.0375 79.1712
lradius 29.0202
lwrist 7.06258
lhand -14.3763 25.2589
lfingers 7.12502
lthumb 11.7663 54.9084
rfemur -16.8473 -15.0529 20.7224
rtibia 44.8878
rfoot -21.2797 -7.3491
rtoes 2.27984
lfemur -7.28644 3.6771 -19.3656
ltibia 25.6675
lfoot -15.1778 -0.0992783
ltoes -1.50872
1087
root 18.3646 17.4913 -20.9314 183.448 56.35 -178.185
lowerback 4.20189 -0.124819 -2.44542
upperback 2.81589 -0.143435 2.94346
thorax 0.557814 -0.0842436 4.41599
lowerneck -12.9133 -5.20853 -10.9048
upperneck 39.2553 -4.0048 5.31293
head 16.8003 -1.73178 3.86666
rclavicle 3.66758e-014 1.66979e-014
rhumerus -31.2201 -10.5162 -76.6311
rradius 27.591
rwrist -8.70511
rhand -18.3057 14.1357
rfingers 7.12502
rthumb 7.97528 -15.6938
lclavicle 3.66758e-014 1.66979e-014
lhumerus -35.0368 9.39529 79.9575
lradius 28.6223
lwrist 4.7605
lhand -17.7794 24.6864
lfingers 7.12502
lthumb 8.48324 54.496
rfemur -16.5613 -15.1552 21.0142
rtibia 44.5752
rfoot -20.7014 -6.9356
rtoes 4.77057
lfemur -7.24677 3.70334 -19.2727
ltibia 25.8478
lfoot -15.3761 0.458711
ltoes -0.631712
1088
root 18.3838 17.4862 -20.937 183.788 57.2043 -177.71
lowerback 4.12146 -0.103084 -2.3926
upperback 2.86158 -0.109451 3.04608
thorax 0.646878 -0.0685007 4.49152
lowerneck -12.9368 -5.16888 -10.8411
upperneck 39.2427 -3.96125 5.24771
head 16.7886 -1.72033 3.8302
rclavicle -7.13637e-014 -1.59028e-014
rhumerus -31.1071 -11.7071 -76.2435
rradius 27.2382
rwrist -7.94368
rhand -18.4236 13.9285
rfingers 7.12502
rthumb 7.8615 -15.9053
lclavicle -7.13637e-014 -1.59028e-014
lhumerus -34.9228 8.9384 80.1864
lradius 28.2832
lwrist 3.89261
lhand -19.4301 24.6899
lfingers 7.12502
lthumb 6.88995 54.5578
rfemur -16.052 -15.2237 21.5094
rtibia 44.0368
rfoot -19.7646 -6.93307
rtoes 5.58508
lfemur -7.24234 3.72791 -19.0369
ltibia 26.3062
lfoot -15.7064 1.15738
ltoes -0.0368471
1089
root 18.3953 17.4767 -20.9413 184.749 57.8489 -176.62
lowerback 4.02847 -0.179616 -1.98434
upperback 2.84042 -0.19187 3.27335
thorax 0.683528 -0.103737 4.49884
lowerneck -12.9004 -5.1522 -10.8467
upperneck 39.2091 -3.93041 5.15935
head 16.7551 -1.72804 3.79205
rclavicle -5.14852e-014 8.74653e-015
rhumerus -31.0459 -12.2363 -75.9642
rradius 26.9239
rwrist -7.526
rhand -18.4094 14.2474
rfingers 7.12502
rthumb 7.87519 -15.5859
lclavicle -5.14852e-014 8.74653e-015
lhumerus -34.9289 9.13923 80.1494
lradius 28.2471
lwrist 3.62769
lhand -19.7621 24.7707
lfingers 7.12502
lthumb 6.56943 54.6488
rfemur -15.6409 -15.7389 22.4088
rtibia 43.2951
rfoot -18.9432 -7.23138
rtoes 4.67543
lfemur -7.38482 3.98031 -18.4391
ltibia 26.765
lfoot -15.9864 1.56293
ltoes -0.317851
1090
root 18.4048 17.4573 -20.9399 185.742 58.4055 -175.546
lowerback 3.93833 -0.302542 -1.60071
upperback 2.8101 -0.337897 3.47727
thorax 0.714558 -0.170841 4.49773
lowerneck -12.8698 -5.16762 -10.8679
upperneck 39.2368 -3.96218 5.13594
head 16.7667 -1.75481 3.77886
rclavicle 7.93151e-014 -4.77083e-015
rhumerus -31.0119 -12.2606 -75.9032
rradius 26.6312
rwrist -7.68675
rhand -18.4131 14.8872
rfingers 7.12502
rthumb 7.87167 -14.9462
lclavicle 7.93151e-014 -4.77083e-015
lhumerus -35.0062 9.19922 80.1591
lradius 28.4177
lwrist 3.72931
lhand -19.51 24.9356
lfingers 7.12502
lthumb 6.81288 54.806
rfemur -15.2586 -16.2239 23.2644
rtibia 42.3969
rfoot -19.0982 -7.27513
rtoes 4.98434
lfemur -7.54397 4.50959 -17.8321
ltibia 27.1142
lfoot -16.1984 1.84561
ltoes -2.69453
1091
root 18.4216 17.4482 -20.9376 186.285 59.0363 -174.917
lowerback 3.88212 -0.341271 -1.4611
upperback 2.82187 -0.383301 3.56064
thorax 0.761672 -0.192108 4.50641
lowerneck -12.8463 -5.17458 -10.8176
upperneck 39.257 -4.01555 5.15208
head 16.7755 -1.77321 3.76714
rclavicle 7.34509e-014 1.74931e-014
rhumerus -31.2154 -11.6115 -76.1869
rradius 26.8387
rwrist -8.87595
rhand -19.0724 14.6374
rfingers 7.12502
rthumb 7.23527 -15.2189
lclavicle 7.34509e-014 1.74931e-014
lhumerus -34.9458 8.93779 80.2121
lradius 28.5286
lwrist 3.98935
lhand -19.7296 25.0988
lfingers 7.12502
lthumb 6.60084 54.976
rfemur -14.7408 -16.085 23.6572
rtibia 41.4003
rfoot -20.0838 -6.52017
rtoes 10.6146
lfemur -7.53874 4.72862 -17.5167
ltibia 27.4122
lfoot -16.4516 2.4619
ltoes -4.35657
